<svg xmlns="http://www.w3.org/2000/svg" xmlns:xlink="http://www.w3.org/1999/xlink" viewBox="0 0 44.97 56.05"><defs><style>.cls-1,.cls-4,.cls-5{fill:none;}.cls-2{clip-path:url(#clip-path);}.cls-3{fill:#ffffff;}.cls-4,.cls-5{stroke:#ffffff;stroke-linecap:round;}.cls-4{stroke-miterlimit:10;stroke-width:2.2px;}.cls-5{stroke-linejoin:round;stroke-width:9px;}</style><clipPath id="clip-path" transform="translate(-17.33 -10.48)"><rect class="cls-1" width="80" height="80"/></clipPath></defs><title>03-bench-rest</title><g id="Calque_2" data-name="Calque 2"><g id="Disciplines"><g class="cls-2"><g class="cls-2"><path class="cls-3" d="M39.81,66.53A22.49,22.49,0,0,1,27.24,25.4a.64.64,0,0,1,.38-.12.68.68,0,0,1,.56.3.69.69,0,0,1-.18.94,21.13,21.13,0,1,0,23.26-.24.69.69,0,0,1-.2-.94.68.68,0,0,1,.94-.2A22.49,22.49,0,0,1,39.81,66.53" transform="translate(-17.33 -10.48)"/><path class="cls-4" d="M46.91,28.71a16.82,16.82,0,1,1-14.86.16" transform="translate(-17.33 -10.48)"/><circle class="cls-4" cx="22.32" cy="33.41" r="12.71"/><circle class="cls-4" cx="22.32" cy="33.41" r="8.48"/><path class="cls-4" d="M44.31,43.89a4.67,4.67,0,1,1-4.66-4.67A4.67,4.67,0,0,1,44.31,43.89Z" transform="translate(-17.33 -10.48)"/><rect class="cls-5" x="14.22" y="4.5" width="16.21" height="14.45"/></g></g></g></g></svg>