<svg xmlns="http://www.w3.org/2000/svg" xmlns:xlink="http://www.w3.org/1999/xlink" viewBox="0 0 43.06 52.58"><defs><style>.cls-1,.cls-3,.cls-4{fill:none;}.cls-2{clip-path:url(#clip-path);}.cls-3,.cls-4{stroke:#ffffff;stroke-linejoin:round;}.cls-3{stroke-width:5px;}.cls-4{stroke-width:2px;}</style><clipPath id="clip-path" transform="translate(-18.47 -13.89)"><rect class="cls-1" width="80" height="80"/></clipPath></defs><title>07-tir-sportif</title><g id="Calque_2" data-name="Calque 2"><g id="Disciplines"><g class="cls-2"><polygon class="cls-3" points="21.53 2.5 27.91 2.5 40.56 18.27 40.56 34.26 28.03 50.08 21.53 50.08 15.04 50.08 2.5 34.26 2.5 18.27 15.15 2.5 21.53 2.5"/><polyline class="cls-4" points="21.71 2.32 26.68 2.32 34.04 18.11 34.04 29.96 25.66 39.68 21.53 39.68 17.4 39.68 9.02 29.96 9.02 18.11 16.38 2.32 21.71 2.32"/><polygon class="cls-4" points="21.53 31.57 23.54 31.57 27.7 25.57 27.7 18.35 23.65 6.2 21.53 6.2 19.41 6.2 15.36 18.35 15.36 25.57 19.52 31.57 21.53 31.57"/></g></g></g></svg>