<svg xmlns="http://www.w3.org/2000/svg" xmlns:xlink="http://www.w3.org/1999/xlink" viewBox="0 0 49.76 51.53"><defs><style>.cls-1{fill:none;}.cls-2{clip-path:url(#clip-path);}.cls-3{fill:#ffffff;}.cls-4{clip-path:url(#clip-path-3);}</style><clipPath id="clip-path" transform="translate(-14.98 -14.63)"><rect class="cls-1" width="80" height="80"/></clipPath><clipPath id="clip-path-3" transform="translate(-14.98 -14.63)"><path class="cls-1" d="M16.06,39.13A23.42,23.42,0,1,0,39.48,15.71,23.43,23.43,0,0,0,16.06,39.13"/></clipPath></defs><title>09-plateau</title><g id="Calque_2" data-name="Calque 2"><g id="Disciplines"><g class="cls-2"><g class="cls-2"><path class="cls-3" d="M39.48,63.63A24.5,24.5,0,1,1,52.41,18.31a.72.72,0,0,1,.34.49.74.74,0,0,1-.09.58.76.76,0,0,1-.66.36.87.87,0,0,1-.41-.11,23,23,0,1,0,6.77,6.44A.78.78,0,0,1,59,24.86a.78.78,0,0,1,.63.33A24.5,24.5,0,0,1,39.48,63.63" transform="translate(-14.98 -14.63)"/><path class="cls-3" d="M34.46,30.6a5.08,5.08,0,1,1-5.07-5.07,5.07,5.07,0,0,1,5.07,5.07" transform="translate(-14.98 -14.63)"/><path class="cls-3" d="M37.41,32.23c1-.61,25.75-16.21,26.25-16.52.8-.5,1.59.55.68,1.17s-3.81,2.45-4.16,2.72-.51.42-.48.78.17.61-.21.88-.28.2-8.54,5.43c0,0-.53.35-.8.06a.61.61,0,0,0-.88-.12c-.38.24-5.72,3.62-6.19,4a2.3,2.3,0,0,0-1,1.41c-.35.94-1.41,4-1.56,4.34s-.14.71-1,.62-3.28-.24-3.66-.29-.74-.31-.47-1,.73-1.82.94-2.23a3.36,3.36,0,0,1,1.12-1.21" transform="translate(-14.98 -14.63)"/></g><g class="cls-4"><path class="cls-3" d="M25.63,36.75a5.55,5.55,0,0,0-5.54,5.54V63.08l13,3.08v-14a58,58,0,0,1,.3-6.68,1.5,1.5,0,0,1,1.13-1.09c.62-.06,5.56-.53,6.25-.62,2.77-.39,3.84-1.76,4.79-4.26s4-11.51,4.12-11.71c.17-.48-.07-1-.63-.65-.75.48-4.37,2.82-4.53,2.95a2.47,2.47,0,0,0-1,1.31c-.36,1.16-1.64,4.88-1.85,5.36s-.3.83-1.52.8-14.61-.77-14.61-.77" transform="translate(-14.98 -14.63)"/></g></g></g></g></svg>