<svg xmlns="http://www.w3.org/2000/svg" xmlns:xlink="http://www.w3.org/1999/xlink" viewBox="0 0 58.77 49"><defs><style>.cls-1{fill:none;}.cls-2{clip-path:url(#clip-path);}.cls-3{fill:#ffffff;}</style><clipPath id="clip-path" transform="translate(-10.25 -15.72)"><rect class="cls-1" width="80" height="80"/></clipPath></defs><title>05-cible-mobile</title><g id="Calque_2" data-name="Calque 2"><g id="Disciplines"><g class="cls-2"><g class="cls-2"><path class="cls-3" d="M38.87,64.72a24.34,24.34,0,0,1-17.21-7.07.77.77,0,0,1,.54-1.32.77.77,0,0,1,.54.22,22.95,22.95,0,0,0,35.53-4,.78.78,0,0,1,1.31.83A24.42,24.42,0,0,1,38.87,64.72" transform="translate(-10.25 -15.72)"/><path class="cls-3" d="M17.89,29.91a.74.74,0,0,1-.36-.09.77.77,0,0,1-.38-.45.76.76,0,0,1,.06-.59A24.5,24.5,0,0,1,58.6,25.69a.78.78,0,0,1,.14.57.77.77,0,0,1-.3.51.79.79,0,0,1-.46.15.74.74,0,0,1-.62-.31A23,23,0,0,0,18.57,29.5a.75.75,0,0,1-.68.41" transform="translate(-10.25 -15.72)"/><path class="cls-3" d="M11.58,37.8c1.11-.34,3.45-.32,4.27-.66a3.31,3.31,0,0,0,1.9-1.41C18.11,35,19,33.81,19,33.51s.37-1.41.94-1.41a4.21,4.21,0,0,1,1.4.51,3.42,3.42,0,0,0,1.69-.3c.37-.21,4.34-2.12,5.51-2.54a12,12,0,0,0,2-.71,2,2,0,0,1,1.39-.54,33,33,0,0,1,4.59.54c1.36.32,3,.64,4.53.93s5.12.71,7,.9a17.65,17.65,0,0,1,4.74.93c1.2.51,1.85.74,2.19.93s.68.29,1-.06a13.25,13.25,0,0,1,1.46-1.87,3.46,3.46,0,0,1,1.72-1.14c.58-.1,1.56-.08,2-.21s.74-.32,1.48-.56,1.26-.4,1.59-.12a.9.9,0,0,1,.28,1.15,2,2,0,0,1-1.29,1,14.08,14.08,0,0,0-2.59.27,7.57,7.57,0,0,0-2,1.09c-.41.39-1.26,1.33-1.38,1.44s-.35.08-.39.38a1.43,1.43,0,0,0,.33,1.09,17.62,17.62,0,0,1,1.72,2.61c.33.79.25,1,.78,1.3a3.29,3.29,0,0,0,1.48.56,6,6,0,0,1,1.28,0c.29.1.57.4.78,1.07a7,7,0,0,0,1,2.3,4.49,4.49,0,0,0,1.79,1.61c.91.51,1.93,1.06,2.32,1.26a1.65,1.65,0,0,1,.8.81c0,.19-.26.45-.49.58a7.4,7.4,0,0,1-2.18.23,4.91,4.91,0,0,1-1.54-.17c-.28-.11-.59,0-.51.3s.27.41.62.66a15.82,15.82,0,0,0,1.56,1,3.73,3.73,0,0,1,.88.49.76.76,0,0,1,.14.66,1.24,1.24,0,0,1-.82.79,6.67,6.67,0,0,1-2,.35,3.45,3.45,0,0,1-2.22-1,14.08,14.08,0,0,1-1.85-2.14,3.14,3.14,0,0,0-1-1.11,1.57,1.57,0,0,0-1.08-.11c-.25.09-1.2.52-2.06.9a7.18,7.18,0,0,1-3.08.84,3.22,3.22,0,0,1-2.1-.82c-.47-.42-1.58-1.62-1.72-1.77a.64.64,0,0,0-.85-.12,5.78,5.78,0,0,1-1,.55c-.37.09-.85.13-1.05.22a2.29,2.29,0,0,0-.71.48.78.78,0,0,1-.55.26,5.22,5.22,0,0,0-.62,0,2.54,2.54,0,0,0-.58.47c-.11.16-.19.4-.42.49a8.81,8.81,0,0,1-1.49.07,1.46,1.46,0,0,0-.81.13c-.21.14-.26.41-.66.54a11.13,11.13,0,0,1-2.28.13c-.82,0-4.53,0-5.27.11S32,50,31.72,50.4a6.73,6.73,0,0,1-1,1.2,2.78,2.78,0,0,1-1.57.18,10,10,0,0,1-1.61-.31,3.46,3.46,0,0,0-1.29-.13,13.36,13.36,0,0,0-1.93.34,9.89,9.89,0,0,0-1.83.58c-.26.14-.59.67-1,.86a4.33,4.33,0,0,1-1.84.32c-.61,0-1.21-.22-1.21-.73A2,2,0,0,1,19,51.46c.22-.23.47-.71.68-.81a3.35,3.35,0,0,1,1.2-.28,2.36,2.36,0,0,0,1.31-.29,4.55,4.55,0,0,0,.77-.52c.1-.09.22-.32-.15-.41a5.26,5.26,0,0,0-1.8.08,4.07,4.07,0,0,0-1.08.38c-.19.13-.37.64-.45.76a1.11,1.11,0,0,1-.63.35c-.34.08-2,.19-2.45.22s-1.06.16-1.31-.22a.66.66,0,0,1,.09-1A3.73,3.73,0,0,1,17,48.47c1.08-.33,2-.54,2.57-.67a9,9,0,0,1,1.22-.22.28.28,0,0,0,.11-.52c-.23-.14-1.79-1.25-2.73-1.92a8.79,8.79,0,0,0-2.05-1.3c-.49-.13-1.31-.17-2.36-.43A4.47,4.47,0,0,1,11.1,42a3.7,3.7,0,0,1-.84-2.34,1.12,1.12,0,0,1,.5-1,4.5,4.5,0,0,0,.82-.78" transform="translate(-10.25 -15.72)"/></g></g></g></g></svg>