<svg xmlns="http://www.w3.org/2000/svg" xmlns:xlink="http://www.w3.org/1999/xlink" viewBox="0 0 50.98 49.85"><defs><style>.cls-1,.cls-4{fill:none;}.cls-2{clip-path:url(#clip-path);}.cls-3{fill:#ffffff;}.cls-4{stroke:#ffffff;stroke-width:1.74px;}</style><clipPath id="clip-path" transform="translate(-14.53 -14.2)"><rect class="cls-1" width="80" height="80"/></clipPath></defs><title>06-ecoles-tir</title><g id="Calque_2" data-name="Calque 2"><g id="Disciplines"><g class="cls-2"><g class="cls-2"><path class="cls-3" d="M18.43,24.53A21.69,21.69,0,0,1,32.9,14.62a22.13,22.13,0,0,1,12.87,1.31l-1,1.46a19.88,19.88,0,1,0-3.23,37.79A20,20,0,0,0,54.66,45.7c.26-.44.37-.64.49-.89s.88-.25,1.68,0l7.57,2.29c.79.24,1.27.82,1.07,1.3l-.2.41c-3.89,8.13-10.49,12.79-19.06,14.65A26.08,26.08,0,0,1,15.12,43.63a25.76,25.76,0,0,1,3.31-19.09" transform="translate(-14.53 -14.2)"/><path class="cls-4" d="M53.42,32A16.51,16.51,0,1,1,33.79,19.4,16.5,16.5,0,0,1,53.42,32Z" transform="translate(-14.53 -14.2)"/><path class="cls-4" d="M40.33,34.87a3.11,3.11,0,1,1-3.7-2.38A3.12,3.12,0,0,1,40.33,34.87Z" transform="translate(-14.53 -14.2)"/><path class="cls-4" d="M43.54,34.18a6.4,6.4,0,1,1-7.61-4.9A6.4,6.4,0,0,1,43.54,34.18Z" transform="translate(-14.53 -14.2)"/><path class="cls-4" d="M46.85,33.46A9.78,9.78,0,1,1,35.22,26,9.77,9.77,0,0,1,46.85,33.46Z" transform="translate(-14.53 -14.2)"/><path class="cls-4" d="M50,32.77a13,13,0,1,1-15.5-10A13,13,0,0,1,50,32.77Z" transform="translate(-14.53 -14.2)"/></g></g></g></g></svg>