<svg xmlns="http://www.w3.org/2000/svg" xmlns:xlink="http://www.w3.org/1999/xlink" viewBox="0 0 54.65 57.03"><defs><style>.cls-1{fill:none;}.cls-2{clip-path:url(#clip-path);}.cls-3{fill:#ffffff;}.cls-4{clip-path:url(#clip-path-3);}</style><clipPath id="clip-path" transform="translate(-12.13 -11.86)"><rect class="cls-1" width="80" height="80"/></clipPath><clipPath id="clip-path-3" transform="translate(-12.13 -11.86)"><path class="cls-1" d="M19.74,36.87a23,23,0,1,0,23-23,23,23,0,0,0-23,23"/></clipPath></defs><title>11-pistolet</title><g id="Calque_2" data-name="Calque 2"><g id="Disciplines"><g class="cls-2"><g class="cls-2"><path class="cls-3" d="M42.28,60.86A24.61,24.61,0,0,1,18.75,43.19a.8.8,0,0,1,.06-.59.79.79,0,0,1,.47-.37l.21,0a.77.77,0,0,1,.74.56,23,23,0,1,0,.28-13.68.78.78,0,0,1-.73.53,1.09,1.09,0,0,1-.25,0,.8.8,0,0,1-.44-.39.76.76,0,0,1,0-.59A24.5,24.5,0,1,1,42.28,60.86" transform="translate(-12.13 -11.86)"/><path class="cls-3" d="M25,34.54H23.18a3.47,3.47,0,0,0-3,3.28c0,.24.08.76-.23.76s-.37-.07-.57-.55-.78-2-1-2.31a4.24,4.24,0,0,0-.92-.83H13.2a1.06,1.06,0,0,1-1-1.4,1.08,1.08,0,0,1,1.05-.72H25Z" transform="translate(-12.13 -11.86)"/></g><g class="cls-4"><path class="cls-3" d="M58.5,35.24H23.08a2.52,2.52,0,0,0-2.49,1.93,2.48,2.48,0,0,0,2.43,3H43.43c1.9,0,3.44.88,3.44,3.46V68.9L61,61.56V37.71A2.48,2.48,0,0,0,58.5,35.24Z" transform="translate(-12.13 -11.86)"/></g><g class="cls-2"><path class="cls-3" d="M58.07,27.82c0,3.5-2,6.34-4.56,6.34s-4.57-2.84-4.57-6.34,2.05-6.34,4.57-6.34,4.56,2.83,4.56,6.34" transform="translate(-12.13 -11.86)"/></g></g></g></g></svg>