<svg xmlns="http://www.w3.org/2000/svg" xmlns:xlink="http://www.w3.org/1999/xlink" viewBox="0 0 49 49"><defs><style>.cls-1{fill:none;}.cls-2{clip-path:url(#clip-path);}.cls-3{fill:#ffffff;}</style><clipPath id="clip-path" transform="translate(-15.46 -15.51)"><rect class="cls-1" width="80" height="80"/></clipPath></defs><title>12-silhouettes</title><g id="Calque_2" data-name="Calque 2"><g id="Disciplines"><g class="cls-2"><g class="cls-2"><path class="cls-3" d="M40,64.5A24.5,24.5,0,1,1,64.46,40,24.53,24.53,0,0,1,40,64.5m0-47.45a23,23,0,1,0,23,23A23,23,0,0,0,40,17.05" transform="translate(-15.46 -15.51)"/><path class="cls-3" d="M58.57,39.27a11.26,11.26,0,0,0-.89-2.5s-.15-1.53-.25-2.09-.27-.61-.61-.94-.11-1.11,0-1.45a4.71,4.71,0,0,0,.53-3,4.39,4.39,0,0,0-3.12-3.72,7.86,7.86,0,0,0-6,.5A5.8,5.8,0,0,0,45,31.21a20.88,20.88,0,0,0,.39,3.06c0,.61-.81.89-1.69.91a48.19,48.19,0,0,1-5.33,0c-3-.14-5.12-1.42-7.82-1.37a10.71,10.71,0,0,0-7.32,3,5.55,5.55,0,0,0-2,4.38c.17,3.13,1.6,3.95,2.28,5a4.43,4.43,0,0,1,.44,3c-.07.66-.16.75-.19,1.07a7.19,7.19,0,0,0,.37,1.37c.16.64.52,2.7.52,2.7H27.1s0-1.75,0-2.7a7.41,7.41,0,0,1,.73-2.49,7.6,7.6,0,0,1,1.63-1.93,2,2,0,0,1,1.2-.6,1.44,1.44,0,0,1,.92.28c.31.2,2.33,1.67,2.61,1.84a.62.62,0,0,0,.75,0,6.44,6.44,0,0,0,.59-.75c.11-.17.44-.11.75-.06a7.74,7.74,0,0,0,2.14.25,11.06,11.06,0,0,0,3.83-.72,1.37,1.37,0,0,1,1.45,1.25c0,.81.08,5.66.08,5.66h2.34s0-4.82-.06-6,.35-1.27.67-1.47a8.6,8.6,0,0,0,2.39-2.17,9.59,9.59,0,0,0,1-3.35,2.28,2.28,0,0,1,2.17-1.63c1.25-.11,3,1.28,3.53,1.63s.61,1,1.78.85,1.14-1.62,1-2.84m-6.14-7.72c-.35.16-1,.31-1.86.75a10.92,10.92,0,0,0-1.65,1c-.28.2-.91.48-1-.13A2.94,2.94,0,0,1,48.38,31a2.33,2.33,0,0,1,2-1.06,3.53,3.53,0,0,1,2,.62.66.66,0,0,1,0,1" transform="translate(-15.46 -15.51)"/></g></g></g></g></svg>