<svg xmlns="http://www.w3.org/2000/svg" xmlns:xlink="http://www.w3.org/1999/xlink" viewBox="0 0 52.69 49"><defs><style>.cls-1{fill:none;}.cls-2{clip-path:url(#clip-path);}.cls-3{fill:#ffffff;}</style><clipPath id="clip-path" transform="translate(-13.11 -15.54)"><rect class="cls-1" width="80" height="80"/></clipPath></defs><title>10-para-tir</title><g id="Calque_2" data-name="Calque 2"><g id="Disciplines"><g class="cls-2"><g class="cls-2"><path class="cls-3" d="M41.3,64.54a13.87,13.87,0,0,1-9.94-3.77A8.68,8.68,0,0,1,29,54.11a12.59,12.59,0,0,1,4.6-8.85,22.83,22.83,0,0,1,7.6-4.37l.13,0v.72l-.07,0c-7,2.45-10.73,8.16-10.73,12.3,0,6.29,5.41,9.11,10.78,9.11a23,23,0,0,0,0-45.91,22.73,22.73,0,0,0-16.52,7,.77.77,0,0,1-1.1,0,.78.78,0,0,1,0-1.09A24.5,24.5,0,1,1,41.3,64.54" transform="translate(-13.11 -15.54)"/><path class="cls-3" d="M25.12,58.17a.78.78,0,0,1-.53-.21A24.59,24.59,0,0,1,16.8,40a24.27,24.27,0,0,1,1.84-9.31.77.77,0,0,1,.71-.48.72.72,0,0,1,.29.06.75.75,0,0,1,.42,1,23,23,0,0,0,5.59,25.52.77.77,0,0,1,.24.54.76.76,0,0,1-.21.55.75.75,0,0,1-.56.25" transform="translate(-13.11 -15.54)"/><path class="cls-3" d="M58.38,46.39c-2-4.91-9.39-6.56-16.6-3.68S30.3,51.89,32.26,56.8s9.39,6.56,16.61,3.68,11.47-9.19,9.51-14.09M48.86,60c-6.58,2.62-13.35,1.13-15.13-3.33s2.11-10.2,8.68-12.82,13.34-1.13,15.12,3.33S55.43,57.34,48.86,60" transform="translate(-13.11 -15.54)"/><path class="cls-3" d="M49.67,49.22a2.58,2.58,0,0,0-2.35-1.08,6.7,6.7,0,0,0-3.26,1c-2.28,1.32-3.49,3.52-2.69,4.92a2.6,2.6,0,0,0,2.35,1.08,6.65,6.65,0,0,0,3.25-1c2.29-1.32,3.5-3.52,2.7-4.91M47,53.49a6.92,6.92,0,0,1-2.79,1.07A2.48,2.48,0,0,1,42.08,54c-.84-.95,0-2.72,1.92-4A6.92,6.92,0,0,1,46.79,49a2.49,2.49,0,0,1,2.17.55c.83.95,0,2.72-1.92,4" transform="translate(-13.11 -15.54)"/><path class="cls-3" d="M38.06,27.84H43V26.78H13.55a.7.7,0,0,0-.44.57c0,.24.44.49.44.49H23.61v.71H34.24s-.09.38.5.64a7.85,7.85,0,0,0,1.32.44s.85,5.94,1,6.67a1.44,1.44,0,0,0,1.06,1.12A1.86,1.86,0,0,0,39.85,37c.55-.55,1.45-1.58,1.45-1.58l-.19,7.84s5.49-1.11,5.7-1.14,3.4,0,3.4,0,.76-9.75.88-10.89a2.25,2.25,0,0,0-2.55-2.36c-1.8,0-6.28-.13-6.55-.14-.46,0-.68.2-.85.73s-1.64,4.44-1.73,4.73c-.17.51-.72.39-.77-.15S38,28,38,28" transform="translate(-13.11 -15.54)"/><path class="cls-3" d="M38.41,28.55h2.34c.23,0,.21.25.14.43s-.36.9-.42,1-.21.09-.35,0-1.46-.8-1.58-.9-.06-.57-.06-.57" transform="translate(-13.11 -15.54)"/><path class="cls-3" d="M50,24.79c-.44,2.09-2,3.51-3.57,3.19s-2.42-2.28-2-4.36,2-3.51,3.57-3.19,2.42,2.28,2,4.36" transform="translate(-13.11 -15.54)"/></g></g></g></g></svg>