<svg xmlns="http://www.w3.org/2000/svg" xmlns:xlink="http://www.w3.org/1999/xlink" viewBox="0 0 64.99 49"><defs><style>.cls-1{fill:none;}.cls-2{clip-path:url(#clip-path);}.cls-3{fill:#ffffff;}</style><clipPath id="clip-path" transform="translate(-7.4 -15.74)"><rect class="cls-1" width="80" height="80"/></clipPath></defs><title>08-armes-regelementaires</title><g id="Calque_2" data-name="Calque 2"><g id="Disciplines"><g class="cls-2"><g class="cls-2"><path class="cls-3" d="M42.76,64.74A24.5,24.5,0,0,1,18.27,40.8a.78.78,0,1,1,1.55,0,22.95,22.95,0,0,0,40.74,14,.78.78,0,0,1,.6-.28.79.79,0,0,1,.49.17.78.78,0,0,1,.11,1.09,24.41,24.41,0,0,1-19,9" transform="translate(-7.4 -15.74)"/><path class="cls-3" d="M66.46,39.79a.77.77,0,0,1-.77-.73,23,23,0,0,0-43.41-9.19.77.77,0,0,1-.69.42.85.85,0,0,1-.35-.08.78.78,0,0,1-.34-1A24.5,24.5,0,0,1,67.23,39a.76.76,0,0,1-.2.56.78.78,0,0,1-.53.25Z" transform="translate(-7.4 -15.74)"/><path class="cls-3" d="M71.52,44c-.74-.2-15.19-3.5-15.64-3.59s-1.52-.06-2.18-.13-.84-.35-1.26-.7a14.67,14.67,0,0,0-7.08-3.38,1.12,1.12,0,0,1-.77-.36,2.19,2.19,0,0,1-.32-1c0-.28-.39-.39-.6-.06a4.78,4.78,0,0,1-1.11,1A2.56,2.56,0,0,1,41,36c-.68,0-1.9-.25-2.26-.3s-.32-.3-.26-.49a2,2,0,0,0,.13-.66c0-.13-.13-.51-.43-.51s-.4.38-.53.57a1.17,1.17,0,0,1-.88.43.8.8,0,0,1-.79-.45c-.08-.27-.49-.38-.81-.4s-3.16-.37-4.73-.54-8.07-1-8.84-1A3.63,3.63,0,0,0,20,33a5.06,5.06,0,0,1-1.65.7L10,32.55s-.22-.59-.29-.82-.16-.6-.48-.62-.47,0-.52.26a.69.69,0,0,1-.18.41c-.1.09-.27,0-.4,0s-.2.22-.33.35a.51.51,0,0,0-.36.46c-.06.42,0,.82.64.91l8.86,1.25v.89c0,.21.38.36,1,.49l1.12.22s-.17.21.41.6a41.47,41.47,0,0,0,3.77,1.79,5.83,5.83,0,0,0,1.45.49,3.4,3.4,0,0,1,.74.08,11,11,0,0,1,1.9,1.11,16.87,16.87,0,0,1,2,1.79c.58.54,1.09,1,1.37,1.29s1,.53,1.58.89.55.64,1.45,1.35a12.57,12.57,0,0,0,3.35,1.83c1.34.51,5.33,2.44,5.91,2.71s.66.34.77.6a1.89,1.89,0,0,0,.62.75,5,5,0,0,0,1.58.66c.42,0,.49-.17.81-.3a4.52,4.52,0,0,1,1.09-.15c.17,0,6.12,0,7.3,0a13.81,13.81,0,0,1,2.56.13,12.21,12.21,0,0,0,1.9.36,9.88,9.88,0,0,0,2-.3c1-.17,5.08-.58,5.67-.6a2.35,2.35,0,0,1,.92.07c.28.06,1.09.45,1.62.66s.67-.36.81-.77,1.41-4.84,1.58-5.91-.06-1.28-.81-1.47M41.74,40.9c.59,0,2.22.21,2.22.21a.92.92,0,0,1,.14.52c0,.23-.31.38-.8.37a2.57,2.57,0,0,1-1.56-.4.56.56,0,0,1,0-.7M60.49,51.12c-.09,0,0,.36-.65.36a10,10,0,0,1-1.76-.21,2.9,2.9,0,0,0-1-.18c-.35.06-.47-.28-.21-.32a6,6,0,0,1,1.71,0,12.77,12.77,0,0,1,1.94.35M63,49.84a11.15,11.15,0,0,1-1.63.18c-.82,0-2.39-.17-3.25-.24a12.69,12.69,0,0,0-3,.24c-.54.14-1,.57-1.69.56s-3.23-.25-4-.32S47.78,50,47.31,50a2,2,0,0,1-1-.13,12.38,12.38,0,0,1-1.89-1.26c-.49-.4-.76-.66-1-.67s-.55.24-.71.21-3.85-1.41-5.15-2A25.69,25.69,0,0,1,34.91,45c-.89-.52-2-1.36-2.66-1.75s-1.22-.69-1.42-.82-.8-.75-1.15-1a11.29,11.29,0,0,0-1.4-1c-.62-.39-.94-.7-1.38-.93s-.91-.48-.88-.67.4-.3.77-.41a2.79,2.79,0,0,1,.71-.11c.7.07,5.34.84,5.91.92s1.12.22,1.42.29.51.18.5.71,0,3.58,0,3.9.48.49,1,.52,2,.16,2.3.19.62,0,.64-.44,0-3,0-3,.24-.34.42-.35a3.35,3.35,0,0,1,.73.16.53.53,0,0,1,.37.38,1.55,1.55,0,0,0,.9,1.07,6.77,6.77,0,0,0,1.93.24c.63,0,1.32-.17,1.45-.4a1.92,1.92,0,0,0,.19-.91,5,5,0,0,1,1.86.51,7,7,0,0,1,3.12,2.69c.69,1,.94,1.31,1,1.45s.29.2.56.2,1.39-.27,2-.27a6.28,6.28,0,0,1,2.49.57c1.21.48,6.41,2.62,6.66,2.72s.67.44.12.5" transform="translate(-7.4 -15.74)"/></g></g></g></g></svg>