<svg xmlns="http://www.w3.org/2000/svg" xmlns:xlink="http://www.w3.org/1999/xlink" viewBox="0 0 49 49"><defs><style>.cls-1,.cls-4{fill:none;}.cls-2{clip-path:url(#clip-path);}.cls-3{fill:#ffffff;}.cls-4{stroke:#ffffff;stroke-linecap:round;stroke-miterlimit:10;stroke-width:3px;stroke-dasharray:6 6;}.cls-5{clip-path:url(#clip-path-3);}</style><clipPath id="clip-path" transform="translate(-15.3 -15.51)"><rect class="cls-1" width="80" height="80"/></clipPath><clipPath id="clip-path-3" transform="translate(-15.3 -15.51)"><path class="cls-1" d="M17.15,40.71A22.57,22.57,0,0,0,39.72,63.27c12.46,0,22.56-8.22,22.56-22.56a22.57,22.57,0,1,0-45.13,0"/></clipPath></defs><title>02-arbalete</title><g id="Calque_2" data-name="Calque 2"><g id="Disciplines"><g class="cls-2"><g class="cls-2"><path class="cls-3" d="M39.8,64.5A24.5,24.5,0,1,1,64.3,40,24.53,24.53,0,0,1,39.8,64.5m0-47.45a23,23,0,1,0,23,23,23,23,0,0,0-23-22.95" transform="translate(-15.3 -15.51)"/><line class="cls-4" x1="7.28" y1="21.67" x2="24.25" y2="29.45"/><line class="cls-4" x1="41.56" y1="21.67" x2="24.59" y2="29.45"/></g><g class="cls-5"><path class="cls-3" d="M39.68,63.91a12.67,12.67,0,0,0,1.55,0s.55-36,.55-36.24.09-.74.58-.74a17.32,17.32,0,0,1,6.06,1,14.89,14.89,0,0,1,6.3,4.33A24.71,24.71,0,0,1,58,37.45c.3.58.66.74,1.05.53s.18-.69,0-1.17a24.06,24.06,0,0,0-6.27-8.72,17,17,0,0,0-10.15-4.24c-.62,0-.67-.43-.67-.86V21.61a.92.92,0,0,0-1-.82H38.42c-.52-.12-1,.26-.71.69v1.39c-.24.43-.29.83-.91.86A16.8,16.8,0,0,0,26.72,28a24,24,0,0,0-6.23,8.72c-.17.47-.32,1,0,1.16s.75.06,1.05-.53a24.41,24.41,0,0,1,3.24-5.27A14.73,14.73,0,0,1,31,27.71a17.33,17.33,0,0,1,6-.95c.48,0,.66.73.66.73l.54,36.37a12.82,12.82,0,0,0,1.55,0" transform="translate(-15.3 -15.51)"/></g></g></g></g></svg>