<svg xmlns="http://www.w3.org/2000/svg" xmlns:xlink="http://www.w3.org/1999/xlink" viewBox="0 0 49 49">
    <defs>
        <style>.cls-1{fill:none;}.cls-2{clip-path:url(#clip-path);}.cls-3{fill:#ffffff;}</style>
        <clipPath id="clip-path" transform="translate(-15.31 -15.87)">
            <rect class="cls-1" width="80" height="80"/>
        </clipPath>
    </defs>
    <title>01-armes-anciennes</title>
    <g id="Calque_2" data-name="Calque 2">
        <g id="Disciplines">
            <g class="cls-2">
                <path class="cls-3" d="M39.81,64.86a24.29,24.29,0,0,1-7.3-1.11.77.77,0,0,1-.46-.37.81.81,0,0,1,0-.59.76.76,0,0,1,.74-.54.91.91,0,0,1,.23,0A23,23,0,0,0,59.6,28.73a.78.78,0,0,1,.28-1.06.77.77,0,0,1,.39-.11.78.78,0,0,1,.66.38A24.5,24.5,0,0,1,39.81,64.86M16.74,46.69A.76.76,0,0,1,16,46.1,24.5,24.5,0,0,1,39.81,15.87,24.2,24.2,0,0,1,51,18.56a.82.82,0,0,1,.39.45.8.8,0,0,1-.05.59.77.77,0,0,1-.69.42.73.73,0,0,1-.35-.09A23,23,0,0,0,16.86,40.36a23.08,23.08,0,0,0,.63,5.38.78.78,0,0,1-.57.93.55.55,0,0,1-.18,0" transform="translate(-15.31 -15.87)"/>
                <path class="cls-3" d="M59.27,21.89a6.91,6.91,0,0,0-.94-1.31c-.51-.53-1.33.05-1.33.05S35,34.06,34.55,34.36s-.8.29-1,0-.21-.76-.34-.89-.63-.33-1.64-1a2,2,0,0,0-2.32,0c-.63.34-.67,1.06-.92,1.27s-.42.25-.8-.17a1.08,1.08,0,0,0-1.39,0,1,1,0,0,0,.12,1.56,9.63,9.63,0,0,1,2.07,2.4c.33.59.25,1-.21,1.26a26.78,26.78,0,0,0-3.29,2.44,14,14,0,0,0-3.2,4.09,19.61,19.61,0,0,0-2.27,8.55,11.94,11.94,0,0,0,4.35,9.15,3.5,3.5,0,0,0,4.49,0,4,4,0,0,0,1.71-3.57,4.46,4.46,0,0,0-2-3.28,5,5,0,0,1-1.29-3.48,7.34,7.34,0,0,1,.64-3.57.79.79,0,0,1,1.28-.31,4.82,4.82,0,0,0,2.78.89c3.33,0,4.46-3,4.72-4.09a2.8,2.8,0,0,0-.51-2.06s-.59-.38-.17-.8a2.46,2.46,0,0,0,.76-1.35c0-.42.34-.8,1-1.26s7.92-4.8,9-5.43a2.92,2.92,0,0,0,1.51-2,3.28,3.28,0,0,1,1.27-1.6c.38-.26,4.59-2.82,4.59-2.82s1.51-.09,2.1-.21.38-.68.21-1-.33-.64-.59-1.06,0-.84.38-1.09,3-1.77,3.5-2.11a.8.8,0,0,0,.25-1.05M30.93,36.4a.75.75,0,0,1,0-1.29c.55-.32.86-.45,1.24,0s.45.68,0,1.1-.79.53-1.24.19m3.63,9.36a3.32,3.32,0,0,1-1.16,1.89.83.83,0,0,1-1.09,0,2.7,2.7,0,0,1-.93-1.54c-.06-.68.15-.84.65-1.27s1.29-1.05,1.83-.55a1.69,1.69,0,0,1,.7,1.47M53.23,27.33l-5.14,3.19s-.39.3-.6-.06.3-.61.3-.61c.72-.48,5-3.11,5-3.11s.35-.23.55,0a.35.35,0,0,1-.12.55" transform="translate(-15.31 -15.87)"/>
            </g>
        </g>
    </g>
</svg>