<svg xmlns="http://www.w3.org/2000/svg" xmlns:xlink="http://www.w3.org/1999/xlink" viewBox="0 0 62.47 49"><defs><style>.cls-1{fill:none;}.cls-2{clip-path:url(#clip-path);}.cls-3{fill:#ffffff;}.cls-4{clip-path:url(#clip-path-3);}</style><clipPath id="clip-path" transform="translate(-9.71 -15.74)"><rect class="cls-1" width="80" height="80"/></clipPath><clipPath id="clip-path-3" transform="translate(-9.71 -15.74)"><path class="cls-1" d="M7.53,37.71c0,12.61,27,25.66,39.58,25.66a22.82,22.82,0,1,0,0-45.64c-12.6,0-39.58,7.38-39.58,20"/></clipPath></defs><title>04-carabine</title><g id="Calque_2" data-name="Calque 2"><g id="Disciplines"><g class="cls-2"><g class="cls-2"><path class="cls-3" d="M46.52,64.74a24.51,24.51,0,0,1-24.4-22.35.76.76,0,0,1,.7-.83h.07a.78.78,0,0,1,.77.71,22.94,22.94,0,1,0,1.13-9.42.8.8,0,0,1-.74.53.69.69,0,0,1-.24,0,.73.73,0,0,1-.45-.39.8.8,0,0,1,0-.59,24.5,24.5,0,1,1,23.2,32.4" transform="translate(-9.71 -15.74)"/></g><g class="cls-4"><path class="cls-3" d="M22.56,38.41h-12a.86.86,0,0,1-.81-.51.89.89,0,0,1,.81-1.25H39.21a1.64,1.64,0,0,1,1.32.56c.26.25,5.33,5.22,6.06,5.86a3.6,3.6,0,0,0,2.59,1.2,3.65,3.65,0,0,0,2.57-1c1.11-.84,6-4.68,7.24-5.65a5.46,5.46,0,0,1,6.36-.12c1,.68,6.84,5.08,6.84,5.08l-4.67,9.25-5-4.6a2.9,2.9,0,0,0-2.31-.67c-1,.14-8.6,2.34-10,2.71a4.07,4.07,0,0,1-3.92-.77c-1-1-9-8.78-9.37-9.12a.33.33,0,1,0-.49.44c.28.33,8.73,8.68,9.27,9.19a4.67,4.67,0,0,0,1.66,1,10.47,10.47,0,0,0,1.17.34.34.34,0,0,1-.11.66c-.59,0-1.44,0-2.37,0a9.6,9.6,0,0,1-6.72-2.39c-.6-.56-7-7-7-7a1.52,1.52,0,0,0-.93-.39h-.93a1.21,1.21,0,0,1-.95-.51c-.33-.36-.82-.89-1-1.12a.37.37,0,0,1,0-.44l-.37-.39H24.26c-.47,0-.73-.09-.88-.33s-.46-.24-1-.24" transform="translate(-9.71 -15.74)"/><path class="cls-3" d="M57.65,34.22a5.08,5.08,0,1,1-5.07-5.07,5.08,5.08,0,0,1,5.07,5.07" transform="translate(-9.71 -15.74)"/></g></g></g></g></svg>